<svg width="182" height="188" viewBox="0 0 182 188" fill="none" xmlns="http://www.w3.org/2000/svg">
<circle cx="38" cy="26" r="4" fill="black"/>
<circle cx="30" cy="134" r="4" fill="black"/>
<circle cx="42" cy="106" r="4" fill="black"/>
<circle cx="34" cy="74" r="4" fill="black"/>
<circle cx="86" cy="85" r="4" fill="black"/>
<circle cx="61" cy="54" r="4" fill="black"/>
<circle cx="72" cy="114" r="4" fill="black"/>
<circle cx="143" cy="93" r="4" fill="black"/>
<circle cx="143" cy="142" r="4" fill="black"/>
<circle cx="111" cy="106" r="4" fill="black"/>
<circle cx="154" cy="62" r="4" fill="black"/>
<circle cx="178" cy="74" r="4" fill="black"/>
<circle cx="170" cy="167" r="4" fill="black"/>
<circle cx="135" cy="171" r="4" fill="black"/>
<circle cx="166" cy="126" r="4" fill="black"/>
<circle cx="131" cy="46" r="4" fill="black"/>
<circle cx="101" cy="58" r="4" fill="black"/>
<circle cx="115" cy="134" r="4" fill="black"/>
<circle cx="72" cy="148" r="4" fill="black"/>
<circle cx="135" cy="25" r="4" fill="black"/>
<circle cx="166" cy="33" r="4" fill="black"/>
<path d="M40 27.4999C40.7909 34.0908 45.2635 40.8445 48.9722 46.2221C50.468 48.391 52.261 50.8937 54.75 51.9999C55.3463 52.2649 57.9516 54.0229 57.1945 54.5277C54.0287 56.6382 51.1701 59.1713 47.9722 61.2499C44.6751 63.393 41.5686 64.9313 38.75 67.7499C37.7428 68.7571 36.6167 69.8447 35.5 70.7221C33.5738 72.2356 34.4365 76.6309 34.8056 78.7221C36.1151 86.143 39.4183 93.0073 41.0278 100.25C41.1825 100.946 42.0598 102.906 42.6111 103.389C42.7163 103.481 45.0954 104.176 45.6111 104.389C47.7058 105.253 50.2935 106.422 52.5 106.889C57.7117 107.991 62.305 111.785 67.8889 112C70.7377 112.109 72.6154 108.739 74.1111 106.389C75.5142 104.184 77.4365 102.37 78.7778 100.111C80.0662 97.941 81.1284 95.6162 82.5 93.4999C84.0025 91.1818 85.1539 88.5632 87 86.4999C87.9936 85.3894 85.4092 84.3412 84.6667 83.4443C81.3531 79.4422 78.6409 74.9538 75.3889 70.8888C72.3036 67.0321 69.6845 62.9288 67.0278 58.7777C65.3303 56.1253 62.9188 54.1483 61 51.7499C58.9106 49.1381 68.7143 38.7712 70.5278 36.2777C73.3207 32.4375 76.6621 28.6999 79.7222 25.0277C81.5146 22.8769 83.773 21.2269 85.75 19.2499C87.9936 17.0063 89.2297 14.3421 91 11.7499C92.2758 9.88171 93.401 8.09894 95 6.4999C96.7141 4.78577 96.5 6.38281 96.5 8.19434C96.5 20.9181 96.2623 33.817 97.5278 46.4721C97.7894 49.0883 98 51.5975 98 54.2499C98 57.6751 100.376 55.8889 102.861 55.2221C112.309 52.6874 121.414 50.311 130.5 46.7777C132.585 45.9668 131.843 45.1483 132.056 42.9166C132.339 39.938 132.801 36.598 133.75 33.7499C134.79 30.6297 135.355 27.2546 136 24.0277C136.731 20.3718 136.668 20.0078 140.694 21.4721C144.107 22.713 147.623 23.9644 151 25.2777C155.144 26.8893 159.542 28.3521 163.5 30.111C166.519 31.4528 164.872 33.4389 163.889 36.3888C162.284 41.2031 161.36 46.4071 159.5 51.111C158.353 54.0133 156.829 56.6851 155.5 59.4999C155.299 59.9246 154.231 62.5997 154.722 62.8888C156.299 63.8161 158.545 63.8972 160.278 64.9999C165.339 68.2204 170.358 71.364 175.5 74.3888C176.224 74.8148 176.404 75.1727 176.194 73.8332C175.515 69.4846 174.65 65.0795 173.722 60.7777C173.046 57.6404 171.69 54.7973 170.806 51.7499C170.127 49.4136 170.155 47.063 169.25 44.7499C168.063 41.7156 167.674 38.2247 167.472 34.9999C167.334 32.7828 167.813 29.072 164.75 30.2499C160.845 31.7519 156.604 32.4055 152.806 34.2221C150.598 35.278 148.571 37.2858 146.25 37.9999C143.244 38.925 139.809 40.0956 137 41.4999C135.325 42.3375 133.68 42.6183 132 43.3055C131.092 43.677 127.191 44.6122 126.806 45.3055C126.084 46.6035 129.023 51.7158 129.5 52.8888C130.76 55.9908 132.374 58.9629 134 61.8888C136.117 65.6997 137.863 69.1695 139.389 73.2777C141.107 77.9025 142.843 82.5596 145 86.9999C145.732 88.5072 146.198 90.0302 147 91.4999C147.74 92.8557 147.92 92.5012 146.111 92.8888C144.185 93.3015 142.891 94.5107 141.611 95.8888C140.329 97.2692 139.964 99.026 138.889 100.5C137.775 102.027 136.517 103.469 135.389 105C132.724 108.616 129.772 112.069 127 115.611C123.847 119.639 121.764 124.399 118.889 128.611C117.809 130.194 116.948 131.911 115.889 133.5C114.818 135.106 115.3 129.684 115 127.778C114.127 122.234 113.608 116.596 112.389 111.111C111.748 108.227 111 106.035 111 103C111 101.665 110.023 101.959 109 101.278C106.843 99.8396 104.77 97.5472 102.944 95.7221C100.957 93.7346 99.122 91.5895 97.1111 89.611C95.4509 87.9776 93.3122 86.8449 91.8889 84.9999C90.4595 83.147 88.4656 82.4662 89.6111 79.8888C91.8565 74.8366 95.6274 69.9331 96.6111 64.3888C97.1883 61.1355 100 57.6509 100 54.4999" stroke="black" stroke-width="2" stroke-linecap="round"/>
<path d="M134 21.5C132.205 19.9043 130.003 18.57 127.972 17.25C124.498 14.9918 121.413 12.169 117.722 10.25C114.368 8.5056 111.301 6.29211 108 4.5C106.166 3.50464 104.019 1.5 101.889 1.5C99.1318 1.5 95.8968 2.97221 93.25 3.77778C88.4202 5.2477 83.6071 6.75124 78.7778 8.25C72.291 10.2631 66.574 13.6317 60.5 16.5C50.0552 21.4323 39.319 24.3115 32.8889 34.7222C28.0645 42.5331 23.1964 50.3717 18.5278 58.25C15.1208 63.9994 13.8665 71.4484 11 77.5C9.06872 81.5771 5.50588 85.3485 4.52778 89.75C4.27723 90.8775 7.24553 88.1927 7.5 88C10.596 85.6559 13.7959 83.4588 16.8889 81.1111C21.2535 77.7982 25.9015 74.504 30.7778 72C34.0526 70.3183 33.7653 70.8383 35 74.2778C36.5783 78.6745 38.0912 83.1632 39.7778 87.5C41.5262 91.9958 43 97.5465 43 102.389C43 109.515 36.5642 115.961 35 123C34.4019 125.691 33.1705 128.521 32 131C31.6218 131.801 31.3197 133.503 30.5 132C29.7761 130.673 29.0031 129.701 28.1111 128.5C22.7648 121.303 17.1558 114.599 11.0278 108C7.55343 104.258 2.6595 98.9785 1 94" stroke="black" stroke-width="2" stroke-linecap="round"/>
<path d="M31 134C35.7405 136.061 39.8777 139.284 44.5278 141.472C48.2477 143.223 52.5974 144.627 56.5 146C60.5019 147.408 64.4972 148.356 68.5 149.5C68.8189 149.591 69.9833 150.483 69.4444 149.944C68.264 148.764 68.4441 147.497 68.6111 145.889C68.9729 142.406 69 139 69 135.5C69 129.797 70 124.153 70 118.472C70 116.423 70.3875 114.525 70.5 112.5C70.6047 110.616 78.3054 114.445 79.1944 114.972C81.749 116.486 84.0114 117.678 86.8889 118.5C91.3323 119.769 95.2295 121.927 99.5 123.611C104.177 125.456 109.182 126.935 113.222 130C114.484 130.957 115.82 131.944 117 133C118.125 134.007 116.92 133.461 115.694 133.528C105.944 134.055 96.3785 137.622 87 140C80.2113 141.721 66.7222 145.5 66.7222 145.5C66.7222 145.5 74.7798 145.6 78.8056 145.472C86.0322 145.243 92.4303 142.505 99.4444 141.278C105.123 140.284 110.787 139.404 116.389 138.111C117.372 137.884 117.11 140.952 117.222 141.5C117.782 144.237 118.956 146.933 120.5 149.25C122.819 152.728 124.538 156.613 126.722 160.194C128.533 163.165 130.945 165.889 132.5 169C133.284 170.569 135.03 173.151 135.278 174.889C135.428 175.941 136.412 173.079 137.111 172.278C139.639 169.383 142.307 166.64 144.5 163.472C148.15 158.2 152.29 153.145 155.694 147.722C157.779 144.402 159.828 140.776 161.611 137.278C162.977 134.598 164.947 132.383 166 129.5C166.103 129.219 168.214 125.069 168.25 125.083C169.031 125.395 168.494 130.358 168.5 131C168.541 135.475 168.964 139.979 169.25 144.444C169.548 149.087 169.872 153.875 170 158.5C170.042 160 170.5 161.232 170.5 162.778C170.5 166.789 170.614 169.487 168.5 173.111C165.75 177.825 160.609 181.395 157.222 185.75C152.547 191.761 139.625 171.18 137 167.389C134.82 164.24 136.312 161.428 137.5 157.778C138.907 153.456 140.863 149.421 142 145C142.315 143.773 144.72 140 142.444 140C139.166 140 135.34 138.607 132.194 137.694C128.714 136.684 125.424 135.561 122.5 133.389C121.778 132.853 117.203 131.452 117.222 131.166C117.38 128.876 121.355 125.477 122.611 123.778C126.321 118.757 130.198 113.83 134.222 109.055C138.305 104.211 141.244 98.7828 144.972 93.7498C145.315 93.2869 146.461 90.9078 147.25 91.0831C148.492 91.3592 149.931 94.9208 150.611 95.8887C153.402 99.8579 155.959 103.995 158.25 108.278C160.176 111.878 161.279 115.934 163.5 119.389C163.919 120.04 164.542 120.521 164.972 121.166C165.159 121.446 165.058 120.499 165.111 120.166C165.416 118.277 165.964 116.444 166.5 114.611C169.205 105.369 170.239 95.7666 172.472 86.4165C173.218 83.2928 173.711 80.1107 174.5 76.9998C174.902 75.4138 175.755 73.963 175.972 72.3331C176.332 69.6364 173.04 72.7982 172.111 73.4998C168.793 76.0067 164.381 76.8608 160.611 78.4998C157.498 79.8534 154.756 82.0433 151.694 83.5276C149.269 84.7038 145.829 85.6602 143.75 87.2776C140.952 89.4539 134.004 87.9998 130.611 87.9998C125.116 87.9998 119.472 88.3919 114 87.8887C107.637 87.3036 101.655 83.4998 95.25 83.4998C92.3333 83.4998 89.4167 83.4998 86.5 83.4998" stroke="black" stroke-width="2" stroke-linecap="round"/>
</svg>
