<svg width="135" height="164" viewBox="0 0 135 164" fill="none" xmlns="http://www.w3.org/2000/svg">
<path d="M4.49999 22C9.23983 22 14.1927 25.1779 18.1111 27.5C20.1589 28.7135 22.2952 30.2698 24.4722 31.2222C27.2436 32.4347 29.4425 34.4991 32.2222 35.7222C34.9136 36.9064 37.6163 37.697 40.2222 39C42.7459 40.2618 44.9973 41.942 47.6111 43C49.5578 43.7879 51.5969 44.9365 53.25 46.2222C54.3575 47.0836 56.3138 47.3693 57.2222 48.2778C58.09 49.1455 59.1925 49.5621 60.1111 50.3889C60.987 51.1772 63.4966 53.2979 63.1667 52.1667C62.4179 49.5996 66.9537 46.1018 68.75 44.3055C71.2037 41.8518 73.5519 39.1529 76.2778 36.9722C78.967 34.8209 81.5939 32.9668 84.3889 31C85.4437 30.2577 86.4024 28.9919 87.3889 28.1111C88.2549 27.3379 89.2669 27.392 90 26.3889C91.3846 24.4941 94.0839 23.4716 95.7778 21.7778C97.348 20.2076 94.6388 20.1875 92.9722 19.25C88.3776 16.6655 83.2327 14.9303 78.5 12.5C73.8901 10.1328 70.4981 5.94335 66.2222 3.49999C65.2005 2.91613 63.464 2.14703 62.6111 1.38888C62.3779 1.18156 61.9448 3.73954 61.7778 4.22221C61.3114 5.56953 60.4578 6.6935 59.7222 7.88888C57.4982 11.503 56.4622 16.2312 55.2222 20.3055C50.0493 37.3022 50 55.3204 50 72.9444C50 75.7657 50.4809 77 47.3889 77C41.4741 77 36.0925 75.8303 30.5 74C23.4322 71.6869 16.1039 68.5 8.55555 68.5C6.20418 68.5 3.89203 68 1.49999 68C-0.990921 68 7.10028 76.9509 8.47222 78C16.6761 84.2736 23.0208 92.2587 29.3889 100.278C30.8313 102.094 33.1781 103.309 34.4722 105.25C35.8938 107.382 36.6895 106.971 39.3333 106.25C43.7755 105.039 48.2947 104.138 52.7222 102.889C56.6542 101.78 60.5799 102.482 64.5 101.611C68.8669 100.641 75.5488 101.366 79.7778 102.278C87.9508 104.041 96.3942 106.496 104.333 109.111C108.961 110.636 113.702 112.167 118 114.5C119.668 115.406 121.236 117.044 122.75 118.222C123.591 118.876 126.691 119.235 125.667 119.528C123.371 120.184 121.981 122.796 120.389 124.389C118.68 126.098 116.203 126.797 114.5 128.5C113.685 129.315 107.336 133.449 109.306 134.056C111.258 134.656 113.24 136.831 114.889 138C117.442 139.81 119.82 142.441 121.778 144.889C123.529 147.078 125.011 149.99 126.5 152.389C128.14 155.031 130.511 157.616 132 160.222C132.667 161.389 134.578 162 131.889 162C128.47 162 125.028 162.118 121.611 162C116.862 161.836 112.075 161.5 107.25 161.5C105 161.5 102.75 161.5 100.5 161.5C100.049 161.5 100.657 161.065 100.389 160.5C99.8574 159.378 99.1722 158.157 98.5 157.111C95.0011 151.668 92.3546 146.024 88.25 140.972C85.2483 137.278 83.9876 132.475 82 128.5" stroke="black" stroke-width="2" stroke-linecap="round"/>
</svg>
