<svg width="150" height="125" viewBox="0 0 150 125" fill="none" xmlns="http://www.w3.org/2000/svg">
<path d="M1.5 68C8.1896 68 12.7972 71.4207 18.75 73.75C22.4263 75.1886 26.6379 76.8017 29.75 79.2222C31.1348 80.2993 33.2701 80.5908 34.8889 81.1111C36.6953 81.6917 37.446 83.8658 38.3889 85.3889C40.4603 88.7349 42.2741 92.0097 44.1111 95.5C46.0615 99.2057 48.96 103.194 51.75 106.278C55.2674 110.165 58.5281 114.528 62.2222 118.222C63.2059 119.206 64.3681 120.152 65.2222 121.25C65.7652 121.948 66.6993 124.016 67.0278 123.194C68.1305 120.438 72.2813 118.329 74.2778 116.194C76.7748 113.525 79.0079 110.411 82 108.25C84.9051 106.152 88.0266 104.5 91 102.5C93.2855 100.962 94.8179 98.9044 96.7222 97C99.5999 94.1224 102.709 91.4462 105.5 88.5C107.634 86.2474 107.815 81.5794 110.5 80C113.682 78.1283 115.951 73.7137 117.889 70.7222C120.143 67.2429 123.541 65.1671 126.611 62.5C129.77 59.7553 131.748 56.0371 134.778 53.25C136.954 51.2475 139.496 49.6297 141.75 47.7222C144.404 45.4767 145.722 41.8927 147.778 39.25C150.025 36.3613 144.637 31.4698 142.5 29.0278C139.892 26.0477 137.772 24.1187 134.25 22.2222C133.196 21.6546 132.098 21.0991 131 20.6111C128.799 19.633 127.305 22.0565 125.667 23.3333C121.094 26.8962 116.67 30.6193 112.167 34.2222C107.21 38.1878 103.172 42.6927 97.5278 45.75C93.6768 47.836 90.0246 50.3866 87.25 53.7778C86.0717 55.2179 84.9679 56.5842 83.6111 57.8889C82.2695 59.1789 78.2946 58.9323 76.5 59C72.6064 59.1469 68.8352 60.2927 65 60.5C60.5892 60.7384 56.4478 62.383 52 62.5C46.8938 62.6344 42.004 64.6267 36.9444 65.1111C33.5262 65.4384 30.1996 66.0729 26.8056 66.4722C24.8341 66.7042 23.0064 67.5 21 67.5C17.5058 67.5 14.033 69.5 10.75 69.5C9.16278 69.5 1.47275 71.3989 1.83333 70.1111C4.43392 60.8233 10.7785 54.3875 14.9722 46C19.4205 37.1035 24.384 28.2735 29.3889 19.6111C31.4113 16.1109 32.7272 12.0793 34.6111 8.5C35.7965 6.24771 37.7073 3.87796 38.5 1.5" stroke="black" stroke-width="2" stroke-linecap="round"/>
</svg>
