<svg xmlns="http://www.w3.org/2000/svg" viewBox="0 0 870.74 659.89"><g id="Lag_2" data-name="Lag 2"><g id="Lag_1-2" data-name="Lag 1"><path d="M167.49,355.14A454.6,454.6,0,0,1,118,242.68c-5.56-19.5-9.2-39.1.74-57.84,8.49-16,22.29-29.12,36.15-40.51a222,222,0,0,1,97.86-45.87,163.77,163.77,0,0,1,26.55-3.34c7.95-.21,16.46,1.12,21.06,8.35,8.67,13.62,2.84,32.94-1.41,47-10.06,33.29-30.52,70.27-17.17,105.56,11.88,31.39,44.14,46.36,74.62,54.31,17.51,4.57,37.16,9.06,53.41-1.57,13.7-9,21.7-24.25,26.87-39.33,6.87-20,10.14-41.22,12.46-62.17,1.93-17.45,4.33-36.24-1-53.33-4.55-14.58-14.84-26.18-30.41-28.38-12-1.69-26.36,2.06-32.12,13.76-4.11,8.37-2.21,17.62,1.25,25.85,4.3,10.2,9.34,20.13,14,30.15l28.44,60.53,14,29.88c1.45,3.07,5.52,3.48,8.21,2.15,77.29-38.21,161.43-87,184.73-176.66A150,150,0,0,0,639.69,50c-3.05-19.25-10.35-42.66-31.35-48.57-18.72-5.27-38.53,4.52-49.2,19.9-11.89,17.15-13.66,39.91-12,60.12,3.23,38.57,20.69,75.27,47.54,103a163.28,163.28,0,0,0,46.88,34c18.67,8.86,39.75,14.94,60.55,12,22.13-3.2,37.94-18.31,47.8-37.66,10.89-21.36,17-45.35,19-69.17.88-10.5,1.9-22.71-6.09-30.9-6.25-6.42-15.93-8.21-24.47-6.58-20.86,4-29.88,28.32-33.71,46.56-8.92,42.37,5,86.54,28,122.12,23.3,36,56.6,65.77,94.11,86.27a278,278,0,0,0,28.92,13.6c2.38,1,5.59-.64,6.78-2.76a67.25,67.25,0,0,0,5.94-50c-4.45-16.65-16.11-33.84-32.94-39.78-19.07-6.74-36.13,7.3-48.3,20.37A419.34,419.34,0,0,0,751,327.34C706.21,391,679,465.72,663,541.43q-3.37,15.95-6.1,32c-1.9,11.13-3.23,22.39-5.7,33.41-4.19,18.77-15.68,42.15-38.34,41l6,6c-4.4-43.8-27.34-83.89-50.51-120.41-22.56-35.56-48.51-70.18-78.9-99.47-27.34-26.36-61.34-49.42-100.06-53.34-30.8-3.12-69.37,11.09-73.16,45.94-4,36.89,30,65.6,63.61,70.81,36,5.58,69.52-13,91.16-41.08a132.53,132.53,0,0,0,14.38-23.15c4.41-9.08,9.17-19.36,8.21-29.7-1.81-19.61-21.75-29.77-38.34-35.22-40.72-13.38-85.62-7-124.45,9.4a314.84,314.84,0,0,0-56.12,31.29c-16.87,11.6-34.18,24-48.93,38.21-14.18,13.68-22.83,31.51-17.4,51.36s21.39,34.17,39,43.49c9.05,4.78,18.61,8.54,28.11,12.29,3,1.2,6.56-1.31,7.39-4.19,1-3.43-1.21-6.15-4.19-7.38a1485,1485,0,0,0-141.42-50.16c-23.13-6.91-46.87-12.15-69.75-19.84-19.18-6.44-38.45-16.64-49-34.65-12.25-20.88-4.24-44.48,3.38-65.5a401,401,0,0,1,30.36-65c21.19-36.37,53-72.75,97.49-77.57,48.35-5.23,84,34,112.76,67.15,5.07,5.85,13.52-2.67,8.48-8.48-27.55-31.79-59.81-66.6-104.26-70.79C118.57,213.34,78,247.14,52.51,284.54,38.57,305,27.32,327.41,17.77,350.22a360.53,360.53,0,0,0-13,35.59c-3.59,12-5.93,24.58-4.15,37.08,3.11,21.77,19.08,39.35,37.6,50,21.23,12.22,45.84,17,69.2,23.53a1483.17,1483.17,0,0,1,168.06,57.84l3.2-11.57c-17.09-6.74-35.34-13.88-47.88-27.89-11.56-12.91-16.43-31.06-7.08-46.56,4.37-7.23,10.68-13.11,17.06-18.54,7.22-6.14,14.73-12,22.29-17.68a397,397,0,0,1,48.19-31.67c34.09-18.68,72.67-30.33,111.84-26.63a133.21,133.21,0,0,1,27.53,5.61c7.88,2.49,16,5.63,22.42,11s9.94,12.23,8.09,20.7c-1.79,8.18-5.87,16.14-10,23.39C456,461.3,429,485.09,396.8,486.45c-28.33,1.2-59.56-14.66-67.31-43.56-4.09-15.29.47-30.75,13.58-39.93,11.29-7.9,25.51-10.94,39.13-10.74,33.65.5,65.26,20.25,89.69,41.86,28.33,25.06,52.3,55.48,73.64,86.57q17,24.72,31.49,51c9.57,17.31,18.39,35.16,24.08,54.16a149.63,149.63,0,0,1,5.74,28c.34,3.36,2.48,5.82,6,6,17.52.89,33.11-11.05,41.28-25.85,9.66-17.48,11-38.06,14.33-57.37a742.9,742.9,0,0,1,26.69-108.75c11.67-35.19,26.43-69.36,45.06-101.45a440.7,440.7,0,0,1,31-46.6c5.65-7.4,11.6-14.59,17.78-21.56,6-6.8,12.12-13.95,19.5-19.31,7.73-5.62,17-8.92,26-4.24,8.14,4.21,14.26,11.84,18.35,19.88,8.06,15.87,7.89,35.68-.8,51.22l6.77-2.76A257.14,257.14,0,0,1,764,276c-25.39-28.48-45.37-64.29-49.39-102.76-1.94-18.6-.24-38.1,7-55.47,3.09-7.4,8-15.71,15.74-19,5.86-2.45,14.63-1.94,18.23,4,2.53,4.17,2,9.81,1.74,14.46-.29,5.75-.83,11.5-1.69,17.19a189.08,189.08,0,0,1-7.78,32.09c-5.88,17.45-14.42,37-31.17,46.56s-38,6.49-55.5.47a144.06,144.06,0,0,1-44.42-25.06,161.1,161.1,0,0,1-54.34-86.8C555.61,72.62,554,19.6,592.65,12.52c7.24-1.32,15.12,0,20.8,4.91,6.94,6,10,15.41,12.21,24a128.32,128.32,0,0,1,1.58,55.5c-7,38-27.74,72.1-55,99-28.82,28.38-63.86,49.33-99.53,67.91-9,4.68-18,9.22-27.1,13.7l8.2,2.16c-18.42-39.21-37.71-78.14-55.29-117.73-2.63-5.93-5.42-13.83-.69-19.45,3.17-3.76,8.56-5.23,13.3-5.38,14.11-.45,22.81,9.44,26.2,22.44,4.4,16.83,1.38,35.58-.67,52.54-2.36,19.59-5.83,39.67-12.93,58.17-5.08,13.26-13.85,28.05-28.45,32.09-9.37,2.59-19.32.27-28.54-1.86A215,215,0,0,1,343.74,294c-14.15-5-28.14-12-38.63-22.93-11-11.5-16.07-26.65-15.49-42.46,1.3-35.81,23.95-67.11,26.79-102.7,1.17-14.7-2.81-31.86-17.08-39-8.36-4.2-17.93-4.13-27-3.26a231,231,0,0,0-121.58,48.79c-13.94,10.9-27.27,23.44-37.29,38.11a72.3,72.3,0,0,0-12.17,52.84c2.93,20,10,39.76,17.11,58.58a472.44,472.44,0,0,0,24.16,53.69q6.89,13,14.59,25.59c4,6.58,14.41.55,10.36-6.06Z"/></g></g></svg>