<svg width="808" height="550" viewBox="0 0 808 550" fill="none" xmlns="http://www.w3.org/2000/svg">
<rect x="329" y="199" width="148" height="148" fill="#D9D9D9" stroke="black" stroke-width="2"/>
<line x1="355" y1="187.013" x2="354" y2="112.013" stroke="black" stroke-width="2"/>
<line x1="355" y1="113" x2="271" y2="113" stroke="black" stroke-width="2"/>
<line x1="270" y1="114" x2="270" y2="38" stroke="black" stroke-width="2"/>
<circle cx="270.5" cy="17.5" r="16.5" fill="#D9D9D9" stroke="black" stroke-width="2"/>
<line x1="395.82" y1="187.521" x2="394" y2="74.016" stroke="black" stroke-width="2"/>
<circle cx="394.5" cy="52.5" r="16.5" fill="#D9D9D9" stroke="black" stroke-width="2"/>
<line x1="531" y1="510" x2="531" y2="434" stroke="black" stroke-width="2"/>
<line x1="448.158" y1="187.009" x2="448" y2="112.002" stroke="black" stroke-width="2"/>
<line x1="532.983" y1="113.943" x2="448.989" y2="113" stroke="black" stroke-width="2"/>
<line x1="532.373" y1="114.584" x2="532.373" y2="38.5836" stroke="black" stroke-width="2"/>
<circle cx="532.752" cy="18.6954" r="16.5" transform="rotate(0.643509 532.752 18.6954)" fill="#D9D9D9" stroke="black" stroke-width="2"/>
<line x1="490.995" y1="272" x2="706.995" y2="271" stroke="black" stroke-width="2"/>
<circle cx="728.695" cy="270.695" r="16.5" transform="rotate(0.643509 728.695 270.695)" fill="#D9D9D9" stroke="black" stroke-width="2"/>
<line x1="491" y1="314" x2="643" y2="314" stroke="black" stroke-width="2"/>
<line x1="642" y1="390" x2="642" y2="314" stroke="black" stroke-width="2"/>
<circle cx="642.695" cy="409.695" r="16.5" transform="rotate(0.643509 642.695 409.695)" fill="#D9D9D9" stroke="black" stroke-width="2"/>
<line x1="356" y1="358" x2="356" y2="510" stroke="black" stroke-width="2"/>
<circle cx="355.695" cy="530.695" r="16.5" transform="rotate(0.643509 355.695 530.695)" fill="#D9D9D9" stroke="black" stroke-width="2"/>
<line x1="404" y1="358" x2="404" y2="453" stroke="black" stroke-width="2"/>
<circle cx="404.695" cy="473.695" r="16.5" transform="rotate(0.643509 404.695 473.695)" fill="#D9D9D9" stroke="black" stroke-width="2"/>
<line x1="321.002" y1="261.5" x2="162.998" y2="261.5" stroke="black" stroke-width="2"/>
<circle cx="140.752" cy="260.695" r="16.5" transform="rotate(0.643509 140.752 260.695)" fill="#D9D9D9" stroke="black" stroke-width="2"/>
<line x1="321.008" y1="212.245" x2="110.985" y2="212.245" stroke="black" stroke-width="2"/>
<circle cx="112.752" cy="112.695" r="16.5" transform="rotate(0.643509 112.752 112.695)" fill="#D9D9D9" stroke="black" stroke-width="2"/>
<line x1="112" y1="213" x2="112" y2="133" stroke="black" stroke-width="2"/>
<line x1="321" y1="329" x2="191" y2="329" stroke="black" stroke-width="2"/>
<line x1="39" y1="423" x2="191" y2="423" stroke="black" stroke-width="2"/>
<circle cx="17.6954" cy="421.695" r="16.5" transform="rotate(0.643509 17.6954 421.695)" fill="#D9D9D9" stroke="black" stroke-width="2"/>
<line x1="190" y1="424" x2="190" y2="328" stroke="black" stroke-width="2"/>
<circle cx="789.695" cy="140.695" r="16.5" transform="rotate(0.643509 789.695 140.695)" fill="#D9D9D9" stroke="black" stroke-width="2"/>
<line x1="770" y1="141" x2="640" y2="141" stroke="black" stroke-width="2"/>
<line x1="490" y1="235" x2="642" y2="235" stroke="black" stroke-width="2"/>
<line x1="640.5" y1="236.003" x2="640.5" y2="139.997" stroke="black" stroke-width="2"/>
<line x1="450" y1="358" x2="450" y2="434" stroke="black" stroke-width="2"/>
<circle cx="531.695" cy="531.695" r="16.5" transform="rotate(0.643509 531.695 531.695)" fill="#D9D9D9" stroke="black" stroke-width="2"/>
<line x1="449" y1="433" x2="532" y2="433" stroke="black" stroke-width="2"/>
</svg>
