<svg width="1168" height="673" viewBox="0 0 1168 673" fill="none" xmlns="http://www.w3.org/2000/svg">
<line x1="613.143" y1="229.367" x2="611.917" y2="137.378" stroke="black"/>
<line x1="612.417" y1="137.871" x2="509.388" y2="137.871" stroke="black"/>
<line x1="508.888" y1="139.823" x2="508.888" y2="46.6073" stroke="black"/>
<circle cx="508.775" cy="21.4642" r="20.9642" fill="white" stroke="black"/>
<line x1="663.21" y1="229.988" x2="660.978" y2="90.7708" stroke="black"/>
<line x1="829.5" y1="626" x2="829.5" y2="533" stroke="black"/>
<line x1="727.403" y1="229.369" x2="727.21" y2="137.371" stroke="black"/>
<line x1="830.726" y1="139.028" x2="727.704" y2="137.871" stroke="black"/>
<line x1="830.696" y1="140.54" x2="830.696" y2="47.3236" stroke="black"/>
<line x1="779.222" y1="334.342" x2="1044.15" y2="333.115" stroke="black"/>
<circle cx="1070.76" cy="332.015" r="20.9642" transform="rotate(0.643509 1070.76 332.015)" fill="white" stroke="black"/>
<line x1="779.224" y1="385.855" x2="965.656" y2="385.855" stroke="black"/>
<line x1="965.156" y1="478.345" x2="965.156" y2="385.129" stroke="black"/>
<circle cx="965.282" cy="502.502" r="20.9642" transform="rotate(0.643509 965.282 502.502)" fill="white" stroke="black"/>
<line x1="612.917" y1="439.096" x2="612.917" y2="625.528" stroke="black"/>
<circle cx="613.27" cy="650.911" r="20.9642" transform="rotate(0.643509 613.27 650.911)" fill="white" stroke="black"/>
<line x1="671.79" y1="439.096" x2="671.79" y2="555.616" stroke="black"/>
<circle cx="673.369" cy="580.999" r="20.9642" transform="rotate(0.643509 673.369 580.999)" fill="white" stroke="black"/>
<line x1="570.711" y1="320.01" x2="234.995" y2="316.5" stroke="black"/>
<line x1="570.725" y1="259.598" x2="313.126" y2="259.598" stroke="black"/>
<circle cx="315.293" cy="138.224" r="20.9642" transform="rotate(0.643509 315.293 138.224)" fill="white" stroke="black"/>
<line x1="315.097" y1="261.25" x2="315.097" y2="163.128" stroke="black"/>
<line x1="570.715" y1="402.799" x2="411.266" y2="402.799" stroke="black"/>
<line x1="224.835" y1="519.546" x2="411.266" y2="519.546" stroke="black"/>
<circle cx="198.704" cy="517.22" r="20.9642" transform="rotate(0.643509 198.704 517.22)" fill="white" stroke="black"/>
<line x1="410.766" y1="520.046" x2="410.766" y2="402.299" stroke="black"/>
<circle cx="1145.58" cy="172.567" r="20.9642" transform="rotate(0.643509 1145.58 172.567)" fill="white" stroke="black"/>
<line x1="1121.42" y1="172.214" x2="961.976" y2="172.214" stroke="black"/>
<line x1="777.998" y1="288.96" x2="964.429" y2="288.96" stroke="black"/>
<line x1="963.316" y1="289.463" x2="963.316" y2="171.71" stroke="black"/>
<line x1="728.21" y1="439.096" x2="728.21" y2="532.312" stroke="black"/>
<line x1="727.71" y1="531.812" x2="829.512" y2="531.812" stroke="black"/>
<path d="M18 304C18.1333 304.533 18.2 305.2 18.2 306C18.2 306.767 18.1333 307.433 18 308C18.1333 308.533 18.2 309.2 18.2 310C18.2 310.767 18.1333 311.433 18 312C18.1333 312.533 18.2 313.2 18.2 314C18.2 314.767 18.1333 315.433 18 316C18.1333 316.533 18.2 317.2 18.2 318C18.2 318.767 18.1333 319.433 18 320C18.1333 320.533 18.2 321.2 18.2 322C18.2 322.767 18.1333 323.433 18 324C18.1333 324.533 18.2 325.2 18.2 326C18.2 326.767 18.1333 327.433 18 328H14C13.8667 327.433 13.8 326.767 13.8 326C13.8 325.2 13.8667 324.533 14 324C13.8667 323.433 13.8 322.767 13.8 322C13.8 321.2 13.8667 320.533 14 320C13.8667 319.433 13.8 318.767 13.8 318C13.8 317.2 13.8667 316.533 14 316H6C6.13333 316.533 6.2 317.2 6.2 318C6.2 318.767 6.13333 319.433 6 320C6.13333 320.533 6.2 321.2 6.2 322C6.2 322.767 6.13333 323.433 6 324C6.13333 324.533 6.2 325.2 6.2 326C6.2 326.767 6.13333 327.433 6 328H2C1.86667 327.433 1.8 326.767 1.8 326C1.8 325.2 1.86667 324.533 2 324C1.86667 323.433 1.8 322.767 1.8 322C1.8 321.2 1.86667 320.533 2 320C1.86667 319.433 1.8 318.767 1.8 318C1.8 317.2 1.86667 316.533 2 316C1.86667 315.433 1.8 314.767 1.8 314C1.8 313.2 1.86667 312.533 2 312C1.86667 311.433 1.8 310.767 1.8 310C1.8 309.2 1.86667 308.533 2 308C1.86667 307.433 1.8 306.767 1.8 306C1.8 305.2 1.86667 304.533 2 304C1.86667 303.433 1.8 302.767 1.8 302C1.8 301.2 1.86667 300.533 2 300H6C6.13333 300.533 6.2 301.2 6.2 302C6.2 302.767 6.13333 303.433 6 304C6.13333 304.533 6.2 305.2 6.2 306C6.2 306.767 6.13333 307.433 6 308C6.13333 308.533 6.2 309.2 6.2 310C6.2 310.767 6.13333 311.433 6 312H14C13.8667 311.433 13.8 310.767 13.8 310C13.8 309.2 13.8667 308.533 14 308C13.8667 307.433 13.8 306.767 13.8 306C13.8 305.2 13.8667 304.533 14 304C13.8667 303.433 13.8 302.767 13.8 302C13.8 301.2 13.8667 300.533 14 300H18C18.1333 300.533 18.2 301.2 18.2 302C18.2 302.767 18.1333 303.433 18 304ZM38.0195 304C38.1529 304.533 38.2195 305.2 38.2195 306C38.2195 306.767 38.1529 307.433 38.0195 308C38.1529 308.533 38.2195 309.2 38.2195 310C38.2195 310.767 38.1529 311.433 38.0195 312H36.5195C36.6529 312.533 36.7195 313.2 36.7195 314C36.7195 314.767 36.6529 315.433 36.5195 316H35.0195C35.1529 316.533 35.2195 317.2 35.2195 318C35.2195 318.767 35.1529 319.433 35.0195 320H34.0195C34.1529 320.533 34.2195 321.2 34.2195 322C34.2195 322.767 34.1529 323.433 34.0195 324H32.0195C32.1529 324.533 32.2195 325.2 32.2195 326C32.2195 326.767 32.1529 327.433 32.0195 328H28.0195C27.8862 327.433 27.8195 326.767 27.8195 326C27.8195 325.2 27.8862 324.533 28.0195 324H26.0195C25.8862 323.433 25.8195 322.767 25.8195 322C25.8195 321.2 25.8862 320.533 26.0195 320H25.0195C24.8862 319.433 24.8195 318.767 24.8195 318C24.8195 317.2 24.8862 316.533 25.0195 316H23.5195C23.3862 315.433 23.3195 314.767 23.3195 314C23.3195 313.2 23.3862 312.533 23.5195 312H22.0195C21.8862 311.433 21.8195 310.767 21.8195 310C21.8195 309.2 21.8862 308.533 22.0195 308C21.8862 307.433 21.8195 306.767 21.8195 306C21.8195 305.2 21.8862 304.533 22.0195 304C21.8862 303.433 21.8195 302.767 21.8195 302C21.8195 301.2 21.8862 300.533 22.0195 300H26.0195C26.1529 300.533 26.2195 301.2 26.2195 302C26.2195 302.767 26.1529 303.433 26.0195 304C26.1529 304.533 26.2195 305.2 26.2195 306C26.2195 306.767 26.1529 307.433 26.0195 308C26.1529 308.533 26.2195 309.2 26.2195 310C26.2195 310.767 26.1529 311.433 26.0195 312H27.5195C27.6529 312.533 27.7195 313.2 27.7195 314C27.7195 314.767 27.6529 315.433 27.5195 316H29.0195C29.1529 316.533 29.2195 317.2 29.2195 318C29.2195 318.767 29.1529 319.433 29.0195 320H31.0195C30.8862 319.433 30.8195 318.767 30.8195 318C30.8195 317.2 30.8862 316.533 31.0195 316H32.5195C32.3862 315.433 32.3195 314.767 32.3195 314C32.3195 313.2 32.3862 312.533 32.5195 312H34.0195C33.8862 311.433 33.8195 310.767 33.8195 310C33.8195 309.2 33.8862 308.533 34.0195 308C33.8862 307.433 33.8195 306.767 33.8195 306C33.8195 305.2 33.8862 304.533 34.0195 304C33.8862 303.433 33.8195 302.767 33.8195 302C33.8195 301.2 33.8862 300.533 34.0195 300H38.0195C38.1529 300.533 38.2195 301.2 38.2195 302C38.2195 302.767 38.1529 303.433 38.0195 304ZM58.2391 322C58.2391 322.767 58.1724 323.433 58.0391 324C58.1724 324.533 58.2391 325.2 58.2391 326C58.2391 326.767 58.1724 327.433 58.0391 328H54.0391C53.9057 327.433 53.8391 326.767 53.8391 326C53.8391 325.2 53.9057 324.533 54.0391 324C53.9057 323.433 53.8391 322.767 53.8391 322C53.8391 321.2 53.9057 320.533 54.0391 320H46.0391C46.1724 320.533 46.2391 321.2 46.2391 322C46.2391 322.767 46.1724 323.433 46.0391 324C46.1724 324.533 46.2391 325.2 46.2391 326C46.2391 326.767 46.1724 327.433 46.0391 328H42.0391C41.9057 327.433 41.8391 326.767 41.8391 326C41.8391 325.2 41.9057 324.533 42.0391 324C41.9057 323.433 41.8391 322.767 41.8391 322C41.8391 321.2 41.9057 320.533 42.0391 320H43.5391C43.4057 319.433 43.3391 318.767 43.3391 318C43.3391 317.2 43.4057 316.533 43.5391 316C43.4057 315.433 43.3391 314.767 43.3391 314C43.3391 313.2 43.4057 312.533 43.5391 312H44.5391C44.4057 311.433 44.3391 310.767 44.3391 310C44.3391 309.2 44.4057 308.533 44.5391 308H46.0391C45.9057 307.433 45.8391 306.767 45.8391 306C45.8391 305.2 45.9057 304.533 46.0391 304H47.0391C46.9057 303.433 46.8391 302.767 46.8391 302C46.8391 301.2 46.9057 300.533 47.0391 300H53.0391C53.1724 300.533 53.2391 301.2 53.2391 302C53.2391 302.767 53.1724 303.433 53.0391 304H54.0391C54.1724 304.533 54.2391 305.2 54.2391 306C54.2391 306.767 54.1724 307.433 54.0391 308H55.5391C55.6724 308.533 55.7391 309.2 55.7391 310C55.7391 310.767 55.6724 311.433 55.5391 312H56.5391C56.6724 312.533 56.7391 313.2 56.7391 314C56.7391 314.767 56.6724 315.433 56.5391 316C56.6724 316.533 56.7391 317.2 56.7391 318C56.7391 318.767 56.6724 319.433 56.5391 320H58.0391C58.1724 320.533 58.2391 321.2 58.2391 322ZM52.5391 316C52.4057 315.433 52.3391 314.767 52.3391 314C52.3391 313.2 52.4057 312.533 52.5391 312H51.5391C51.4057 311.433 51.3391 310.767 51.3391 310C51.3391 309.2 51.4057 308.533 51.5391 308H48.5391C48.6724 308.533 48.7391 309.2 48.7391 310C48.7391 310.767 48.6724 311.433 48.5391 312H47.5391C47.6724 312.533 47.7391 313.2 47.7391 314C47.7391 314.767 47.6724 315.433 47.5391 316H52.5391ZM78.0586 312C78.1919 312.533 78.2586 313.2 78.2586 314C78.2586 314.767 78.1919 315.433 78.0586 316C78.1919 316.533 78.2586 317.2 78.2586 318C78.2586 318.767 78.1919 319.433 78.0586 320H76.0586C76.1919 320.533 76.2586 321.2 76.2586 322C76.2586 322.767 76.1919 323.433 76.0586 324H74.0586C74.1919 324.533 74.2586 325.2 74.2586 326C74.2586 326.767 74.1919 327.433 74.0586 328H62.0586C61.9253 327.433 61.8586 326.767 61.8586 326C61.8586 325.2 61.9253 324.533 62.0586 324C61.9253 323.433 61.8586 322.767 61.8586 322C61.8586 321.2 61.9253 320.533 62.0586 320C61.9253 319.433 61.8586 318.767 61.8586 318C61.8586 317.2 61.9253 316.533 62.0586 316C61.9253 315.433 61.8586 314.767 61.8586 314C61.8586 313.2 61.9253 312.533 62.0586 312C61.9253 311.433 61.8586 310.767 61.8586 310C61.8586 309.2 61.9253 308.533 62.0586 308C61.9253 307.433 61.8586 306.767 61.8586 306C61.8586 305.2 61.9253 304.533 62.0586 304C61.9253 303.433 61.8586 302.767 61.8586 302C61.8586 301.2 61.9253 300.533 62.0586 300H74.0586C74.1919 300.533 74.2586 301.2 74.2586 302C74.2586 302.767 74.1919 303.433 74.0586 304H76.0586C76.1919 304.533 76.2586 305.2 76.2586 306C76.2586 306.767 76.1919 307.433 76.0586 308H78.0586C78.1919 308.533 78.2586 309.2 78.2586 310C78.2586 310.767 78.1919 311.433 78.0586 312ZM74.0586 320C73.9253 319.433 73.8586 318.767 73.8586 318C73.8586 317.2 73.9253 316.533 74.0586 316C73.9253 315.433 73.8586 314.767 73.8586 314C73.8586 313.2 73.9253 312.533 74.0586 312C73.9253 311.433 73.8586 310.767 73.8586 310C73.8586 309.2 73.9253 308.533 74.0586 308H72.0586C71.9253 307.433 71.8586 306.767 71.8586 306C71.8586 305.2 71.9253 304.533 72.0586 304H66.0586C66.1919 304.533 66.2586 305.2 66.2586 306C66.2586 306.767 66.1919 307.433 66.0586 308C66.1919 308.533 66.2586 309.2 66.2586 310C66.2586 310.767 66.1919 311.433 66.0586 312C66.1919 312.533 66.2586 313.2 66.2586 314C66.2586 314.767 66.1919 315.433 66.0586 316C66.1919 316.533 66.2586 317.2 66.2586 318C66.2586 318.767 66.1919 319.433 66.0586 320C66.1919 320.533 66.2586 321.2 66.2586 322C66.2586 322.767 66.1919 323.433 66.0586 324H72.0586C71.9253 323.433 71.8586 322.767 71.8586 322C71.8586 321.2 71.9253 320.533 72.0586 320H74.0586ZM108.098 316C108.231 316.533 108.298 317.2 108.298 318C108.298 318.767 108.231 319.433 108.098 320C108.231 320.533 108.298 321.2 108.298 322C108.298 322.767 108.231 323.433 108.098 324H116.098C116.231 324.533 116.298 325.2 116.298 326C116.298 326.767 116.231 327.433 116.098 328H104.098C103.964 327.433 103.898 326.767 103.898 326C103.898 325.2 103.964 324.533 104.098 324C103.964 323.433 103.898 322.767 103.898 322C103.898 321.2 103.964 320.533 104.098 320C103.964 319.433 103.898 318.767 103.898 318C103.898 317.2 103.964 316.533 104.098 316C103.964 315.433 103.898 314.767 103.898 314C103.898 313.2 103.964 312.533 104.098 312C103.964 311.433 103.898 310.767 103.898 310C103.898 309.2 103.964 308.533 104.098 308C103.964 307.433 103.898 306.767 103.898 306C103.898 305.2 103.964 304.533 104.098 304C103.964 303.433 103.898 302.767 103.898 302C103.898 301.2 103.964 300.533 104.098 300H116.098C116.231 300.533 116.298 301.2 116.298 302C116.298 302.767 116.231 303.433 116.098 304H108.098C108.231 304.533 108.298 305.2 108.298 306C108.298 306.767 108.231 307.433 108.098 308C108.231 308.533 108.298 309.2 108.298 310C108.298 310.767 108.231 311.433 108.098 312H116.098C116.231 312.533 116.298 313.2 116.298 314C116.298 314.767 116.231 315.433 116.098 316H108.098ZM138.117 324C138.251 324.533 138.317 325.2 138.317 326C138.317 326.767 138.251 327.433 138.117 328H134.117C133.984 327.433 133.917 326.767 133.917 326C133.917 325.2 133.984 324.533 134.117 324H132.617C132.484 323.433 132.417 322.767 132.417 322C132.417 321.2 132.484 320.533 132.617 320H131.117C130.984 319.433 130.917 318.767 130.917 318C130.917 317.2 130.984 316.533 131.117 316H126.117C126.251 316.533 126.317 317.2 126.317 318C126.317 318.767 126.251 319.433 126.117 320C126.251 320.533 126.317 321.2 126.317 322C126.317 322.767 126.251 323.433 126.117 324C126.251 324.533 126.317 325.2 126.317 326C126.317 326.767 126.251 327.433 126.117 328H122.117C121.984 327.433 121.917 326.767 121.917 326C121.917 325.2 121.984 324.533 122.117 324C121.984 323.433 121.917 322.767 121.917 322C121.917 321.2 121.984 320.533 122.117 320C121.984 319.433 121.917 318.767 121.917 318C121.917 317.2 121.984 316.533 122.117 316C121.984 315.433 121.917 314.767 121.917 314C121.917 313.2 121.984 312.533 122.117 312C121.984 311.433 121.917 310.767 121.917 310C121.917 309.2 121.984 308.533 122.117 308C121.984 307.433 121.917 306.767 121.917 306C121.917 305.2 121.984 304.533 122.117 304C121.984 303.433 121.917 302.767 121.917 302C121.917 301.2 121.984 300.533 122.117 300H136.117C136.251 300.533 136.317 301.2 136.317 302C136.317 302.767 136.251 303.433 136.117 304H138.117C138.251 304.533 138.317 305.2 138.317 306C138.317 306.767 138.251 307.433 138.117 308H137.117C137.251 308.533 137.317 309.2 137.317 310C137.317 310.767 137.251 311.433 137.117 312H134.117C134.251 312.533 134.317 313.2 134.317 314C134.317 314.767 134.251 315.433 134.117 316H135.117C135.251 316.533 135.317 317.2 135.317 318C135.317 318.767 135.251 319.433 135.117 320H136.617C136.751 320.533 136.817 321.2 136.817 322C136.817 322.767 136.751 323.433 136.617 324H138.117ZM133.117 312C132.984 311.433 132.917 310.767 132.917 310C132.917 309.2 132.984 308.533 133.117 308C132.984 307.433 132.917 306.767 132.917 306C132.917 305.2 132.984 304.533 133.117 304H126.117C126.251 304.533 126.317 305.2 126.317 306C126.317 306.767 126.251 307.433 126.117 308C126.251 308.533 126.317 309.2 126.317 310C126.317 310.767 126.251 311.433 126.117 312H133.117ZM178.356 322C178.356 322.767 178.29 323.433 178.156 324C178.29 324.533 178.356 325.2 178.356 326C178.356 326.767 178.29 327.433 178.156 328H174.156C174.023 327.433 173.956 326.767 173.956 326C173.956 325.2 174.023 324.533 174.156 324C174.023 323.433 173.956 322.767 173.956 322C173.956 321.2 174.023 320.533 174.156 320H166.156C166.29 320.533 166.356 321.2 166.356 322C166.356 322.767 166.29 323.433 166.156 324C166.29 324.533 166.356 325.2 166.356 326C166.356 326.767 166.29 327.433 166.156 328H162.156C162.023 327.433 161.956 326.767 161.956 326C161.956 325.2 162.023 324.533 162.156 324C162.023 323.433 161.956 322.767 161.956 322C161.956 321.2 162.023 320.533 162.156 320H163.656C163.523 319.433 163.456 318.767 163.456 318C163.456 317.2 163.523 316.533 163.656 316C163.523 315.433 163.456 314.767 163.456 314C163.456 313.2 163.523 312.533 163.656 312H164.656C164.523 311.433 164.456 310.767 164.456 310C164.456 309.2 164.523 308.533 164.656 308H166.156C166.023 307.433 165.956 306.767 165.956 306C165.956 305.2 166.023 304.533 166.156 304H167.156C167.023 303.433 166.956 302.767 166.956 302C166.956 301.2 167.023 300.533 167.156 300H173.156C173.29 300.533 173.356 301.2 173.356 302C173.356 302.767 173.29 303.433 173.156 304H174.156C174.29 304.533 174.356 305.2 174.356 306C174.356 306.767 174.29 307.433 174.156 308H175.656C175.79 308.533 175.856 309.2 175.856 310C175.856 310.767 175.79 311.433 175.656 312H176.656C176.79 312.533 176.856 313.2 176.856 314C176.856 314.767 176.79 315.433 176.656 316C176.79 316.533 176.856 317.2 176.856 318C176.856 318.767 176.79 319.433 176.656 320H178.156C178.29 320.533 178.356 321.2 178.356 322ZM172.656 316C172.523 315.433 172.456 314.767 172.456 314C172.456 313.2 172.523 312.533 172.656 312H171.656C171.523 311.433 171.456 310.767 171.456 310C171.456 309.2 171.523 308.533 171.656 308H168.656C168.79 308.533 168.856 309.2 168.856 310C168.856 310.767 168.79 311.433 168.656 312H167.656C167.79 312.533 167.856 313.2 167.856 314C167.856 314.767 167.79 315.433 167.656 316H172.656ZM195.176 324C195.309 324.533 195.376 325.2 195.376 326C195.376 326.767 195.309 327.433 195.176 328H185.176C185.042 327.433 184.976 326.767 184.976 326C184.976 325.2 185.042 324.533 185.176 324H188.176C188.042 323.433 187.976 322.767 187.976 322C187.976 321.2 188.042 320.533 188.176 320C188.042 319.433 187.976 318.767 187.976 318C187.976 317.2 188.042 316.533 188.176 316C188.042 315.433 187.976 314.767 187.976 314C187.976 313.2 188.042 312.533 188.176 312C188.042 311.433 187.976 310.767 187.976 310C187.976 309.2 188.042 308.533 188.176 308C188.042 307.433 187.976 306.767 187.976 306C187.976 305.2 188.042 304.533 188.176 304H185.176C185.042 303.433 184.976 302.767 184.976 302C184.976 301.2 185.042 300.533 185.176 300H195.176C195.309 300.533 195.376 301.2 195.376 302C195.376 302.767 195.309 303.433 195.176 304H192.176C192.309 304.533 192.376 305.2 192.376 306C192.376 306.767 192.309 307.433 192.176 308C192.309 308.533 192.376 309.2 192.376 310C192.376 310.767 192.309 311.433 192.176 312C192.309 312.533 192.376 313.2 192.376 314C192.376 314.767 192.309 315.433 192.176 316C192.309 316.533 192.376 317.2 192.376 318C192.376 318.767 192.309 319.433 192.176 320C192.309 320.533 192.376 321.2 192.376 322C192.376 322.767 192.309 323.433 192.176 324H195.176ZM217.395 306C217.395 306.767 217.329 307.433 217.195 308C217.329 308.533 217.395 309.2 217.395 310C217.395 310.767 217.329 311.433 217.195 312H214.695C214.829 312.533 214.895 313.2 214.895 314C214.895 314.767 214.829 315.433 214.695 316H212.195C212.329 316.533 212.395 317.2 212.395 318C212.395 318.767 212.329 319.433 212.195 320H208.195C208.062 319.433 207.995 318.767 207.995 318C207.995 317.2 208.062 316.533 208.195 316H210.695C210.562 315.433 210.495 314.767 210.495 314C210.495 313.2 210.562 312.533 210.695 312H213.195C213.062 311.433 212.995 310.767 212.995 310C212.995 309.2 213.062 308.533 213.195 308C213.062 307.433 212.995 306.767 212.995 306C212.995 305.2 213.062 304.533 213.195 304H206.195C206.329 304.533 206.395 305.2 206.395 306C206.395 306.767 206.329 307.433 206.195 308H202.195C202.062 307.433 201.995 306.767 201.995 306C201.995 305.2 202.062 304.533 202.195 304H205.195C205.062 303.433 204.995 302.767 204.995 302C204.995 301.2 205.062 300.533 205.195 300H215.195C215.329 300.533 215.395 301.2 215.395 302C215.395 302.767 215.329 303.433 215.195 304H217.195C217.329 304.533 217.395 305.2 217.395 306ZM212.195 324C212.329 324.533 212.395 325.2 212.395 326C212.395 326.767 212.329 327.433 212.195 328H208.195C208.062 327.433 207.995 326.767 207.995 326C207.995 325.2 208.062 324.533 208.195 324H212.195Z" fill="black"/>
</svg>
