<svg width="354" height="560" viewBox="0 0 354 560" fill="none" xmlns="http://www.w3.org/2000/svg">
<path d="M26 210C10.9469 193.334 5.86811 172.371 3.99997 150.445C1.0114 115.368 0.365162 81.1099 20.3333 50.4445C42.4242 16.5193 88.1645 4.16109 126.444 2.4445C156.409 1.1008 185.188 3.47828 206.333 27.1112C240.213 64.9766 195.022 106.866 174.444 136.889C167.51 147.006 163.387 159.808 164.111 172.111C165.281 192.004 189.426 199.546 205.556 204C224.916 209.346 245.707 212.566 265.778 213.556C288.956 214.698 297.293 209.548 303.889 188.111C306.985 178.047 310.611 164.467 306.667 154C304.63 148.594 295.962 134.222 288.778 134.222C275.957 134.222 269.594 162.106 267.333 170.889C261.548 193.362 279.878 206.858 295.111 220C313.901 236.211 332.556 252.923 342 276.444C350.644 297.972 356.725 327.731 345.222 349.222C312.114 411.082 226.981 423.443 164 429.111C129.549 432.212 91.8541 431.287 62.5555 410.778C33.9511 390.755 38.4359 358.264 50 328.889C59.5584 304.608 78.1034 280.037 101.556 267.778C119.038 258.639 148.035 258.629 163.667 271.556C198.881 300.675 194.541 354.425 169.889 387.778C148.395 416.858 107.101 433.21 72.4444 435.556C65.1717 436.048 37.7271 431.315 35.2222 440.778C30.1089 460.095 33.7632 487.262 41.5555 505.333C59.8506 547.762 124.836 558.346 164.667 558C171.559 557.94 205.989 549.983 198 538" stroke="black" stroke-width="3" stroke-linecap="round"/>
</svg>
