<svg width="176" height="196" viewBox="0 0 176 196" fill="none" xmlns="http://www.w3.org/2000/svg">
<rect width="176" height="196" fill="#F5F5F5"/>
<rect x="-532" y="-351" width="1280" height="800" fill="#D9D9D9"/>
<rect x="-12" y="-9" width="211" height="212" fill="white" stroke="black" stroke-width="2"/>
<path d="M1 96.743C1.39717 100.327 5.05985 104.793 7.39152 107.423C11.1303 111.64 11.5816 118.032 15.5585 122.019C19.1808 125.651 21.2234 131.464 23.5676 135.903C23.9541 136.635 25.7205 138.923 25.8559 136.615C25.9906 134.319 22.7112 132.29 22.3445 135.231C21.7462 140.03 26.2786 141.599 30.4325 141.599C33.3119 141.599 24.4568 139.316 28.6966 141.441C31.1517 142.672 32.6194 138.188 27.2762 138.039C21.814 137.887 28.5073 138.153 27.6708 138.712C27.6416 138.731 29.6911 139.122 29.8013 139.147C31.2609 139.477 32.6333 139.986 34.0228 140.531C36.0254 141.317 38.0743 141.933 40.0593 142.707C43.0879 143.888 46.3107 144.298 49.2914 145.713C53.416 147.672 58.0702 151.348 62.4296 152.319C63.3137 152.516 68.1938 155.743 68.4265 154.692C69.0777 151.755 63.7555 150.083 62.9425 152.438C62.4865 153.758 62.41 156.52 63.8104 157.264C64.3529 157.552 68.6663 159.006 69.0183 158.371C71.305 154.245 63.7348 148.54 61.0487 152.003C56.6828 157.63 71.0132 161.535 71.2672 160.389C71.8314 157.843 69.449 156.836 67.4797 156.235C63.9269 155.151 71.0733 154.84 72.727 154.257C81.8156 151.056 90.886 144.896 100.463 143.696C103.407 143.327 106.442 142.988 109.301 142.351C111.999 141.75 113.621 139.955 109.656 140.175C108.505 140.239 108.203 142.696 108.235 143.577C108.302 145.378 111.698 145.871 113.049 145.871C116.818 145.871 113.423 136.879 109.38 139.582C107.213 141.03 113.795 145.962 113.167 140.927C112.756 137.628 105.194 134.202 102.87 132.502C99.5893 130.102 97.0046 127.069 93.3219 125.223C89.418 123.266 85.6101 121.524 81.9592 119.171C80.2428 118.065 77.5874 115.116 76.2778 113.475C76.1531 113.319 73.5161 108.421 73.5161 109.955C73.5161 112.446 81.5128 114.022 76.5935 109.638C73.001 106.437 71.0679 110.271 75.4099 110.271C79.7348 110.271 73.3685 107.99 73.595 107.107C74.9821 101.698 78.0912 95.707 80.1443 90.414C80.8611 88.566 84.0897 86.3904 84.0897 84.9553C84.0897 81.3967 78.7681 89.4102 80.1443 90.1767C85.281 93.0378 85.0843 86.5775 82.8272 83.5313C82.2019 82.6874 79.4765 81.7483 78.5662 82.6611C76.7153 84.5167 80.9672 88.0264 82.3143 88.5549C87.5391 90.6047 86.9805 86.1044 83.0639 85.3904C80.562 84.9343 84.7926 85.1577 79.9865 83.3731C76.3737 82.0315 73.7408 77.1933 70.5965 74.829C67.026 72.1441 64.5504 69.9914 61.7194 66.5222C59.0849 63.294 58.9165 59.1961 56.7877 55.8421C54.7148 52.5763 63.43 46.5719 65.941 44.0544C70.1966 39.7878 73.493 34.7424 77.6982 30.5263C80.1496 28.0685 83.7475 25.729 85.8257 23.0502C87.9251 20.344 88.7398 16.8757 90.8758 14.1501C91.8701 12.8813 93.1403 11.5881 94.3477 10.5505C95.3028 9.72972 95.3163 6.10538 95.6102 4.89404C97.4606 -2.73263 90.3745 2.66267 92.7695 5.76427C96.8418 11.0379 100.935 5.03665 97.8196 2.48113C95.5484 0.618017 89.5751 2.05885 91.2703 5.88294C92.6927 9.09172 97.9229 5.35298 94.0321 4.89404C92.2687 4.68606 94.9115 4.16697 95.4524 4.18203C98.4687 4.26604 101.042 6.02993 103.738 7.18829C108.2 9.10574 112.638 12.1019 117.113 13.7546C123.045 15.946 129.45 15.6871 135.222 18.5804C138.416 20.1814 133.248 13.1946 131.829 12.3306C128.776 10.4725 127.912 14.0643 131.316 14.8226C132.945 15.1855 134.819 7.32622 129.935 9.28475C124.275 11.5545 126.957 22.1219 131.671 23.96C134.035 24.8818 129.464 16.6177 128.672 20.3209C127.406 26.2454 126.069 32.4352 125.99 38.5166C125.956 41.101 123.572 54.0225 127.015 54.0225C130.378 54.0225 128.902 49.0385 125.279 49.0385C119.654 49.0385 120.846 58.7408 125.832 59.8768C131.694 61.2127 130.058 52.5647 125.279 51.3327C123.492 50.8718 123.363 51.1745 125.279 51.1745C127.595 51.1745 126.793 55.5856 127.094 57.2661C128.011 62.3881 130.654 66.7456 132.381 71.5063C133.792 75.3964 135.099 79.5427 137.352 83.0566C138.863 85.4125 139.835 88.2585 141.456 90.4931C142.326 91.693 140.72 91.5944 140.193 91.9172C138.496 92.9569 138.328 97.5302 138.852 99.235C139.477 101.272 142.593 101.916 144.415 101.687C147.141 101.346 146.585 97.0258 146.585 95.1212C146.585 91.0224 137.858 87.3872 138.93 90.4931C139.166 91.176 141.204 94.4119 142.166 93.7367C143.296 92.9433 141.36 92.444 140.903 92.4709C139.601 92.5477 140.345 94.443 140.903 95.0025C142.223 96.3261 142.395 95.3267 140.588 97.1385C140.017 97.7104 138.572 100.224 140.311 100.224C141.894 100.224 145.049 97.3106 142.521 100.066C138.945 103.963 134.181 107.654 131.671 112.407C128.392 118.617 121.249 122.581 117.113 128.111C114.918 131.044 113.652 134.14 112.062 137.327C109.996 141.471 107.245 141.957 113.207 145.001C115.027 145.931 117.291 147.552 118.336 145.08C119.263 142.886 120.743 138.158 118.73 136.062C115.817 133.029 110.348 135.547 111.116 139.78C111.793 143.518 115.29 135.229 112.812 134.519C111.801 134.229 111.076 134.484 111.076 135.547C111.076 136.841 113.094 136.615 112.496 136.615C101.502 136.615 134.485 136.615 145.48 136.615C149.305 136.615 157.546 136.39 160.393 133.451C164.606 129.103 164.339 124.511 157.553 124.511C154.399 124.511 158.545 131.605 162.524 130.88C164.164 130.581 164.508 128.441 164.299 127.082C164.054 125.486 161.243 125.834 160.117 125.975C156.302 126.453 160.64 132.413 163.234 129.812C164.983 128.058 158.657 125.183 158.657 129.1C158.657 130.927 158.968 132.041 158.302 134.044C157.541 136.335 155.594 137.378 154.554 139.463C151.123 146.343 148.757 153.199 144.809 159.795C141.997 164.494 139.437 169.065 136.327 173.6C135.519 174.777 134.567 176.231 133.486 177.16C132.641 177.886 133.248 175.674 131.671 175.222C129.73 174.666 127.027 174.545 127.568 177.2C128.177 180.195 132.213 180.851 134.748 181.314C138.889 182.068 138.66 169.21 133.446 171.622C128.105 174.094 134.534 183.046 135.182 177.2C135.381 175.412 134.523 174.352 132.736 174.352C130.996 174.352 133.474 174.309 133.959 174.51C137.614 176.026 139.922 180.716 143.349 182.738C145.934 184.262 147.095 186.256 149.11 188.275C149.939 189.107 153.149 193.287 152.621 192.864C147.772 188.975 148.813 195 154.554 195C157.422 195 157.95 192.638 156.921 190.174C156.002 187.972 153.736 187.88 151.714 187.88C146.948 187.88 153.728 192.477 152.937 189.699C151.947 186.227 145.388 195.035 150.096 194.248C153.124 193.743 157.596 189.219 159.762 187.168C163.648 183.489 166.243 178.378 170.375 175.064C172.705 173.195 169.69 172.428 172.506 173.996C173.928 174.788 173.852 171.766 173.097 171.148C172.063 170.299 168.621 169.152 168.047 171.108C166.732 175.592 174.934 181.286 174.991 178.861C175.059 175.995 174.782 174.522 172.308 172.928C171.223 172.228 168.594 171.6 167.968 173.323C166.59 177.123 173.571 179.994 173.571 176.132C173.571 174.248 173.321 173.7 171.835 172.849C170.654 172.172 169.831 166.638 169.31 165.254C165.223 154.408 165.717 142.897 162.208 132.343" stroke="black" stroke-width="2" stroke-linecap="round"/>
<path d="M126.293 56.7626C126.128 55.441 127 55.2754 127 53.926C127 52.8131 122.844 52.8013 122.209 53.3744C120.697 54.7395 124.522 54.6008 124.094 54.6352C120.139 54.9525 117.015 58.2252 113.569 59.9538C105.431 64.0357 96.3971 65.3453 90.2409 72.4035C87.2942 75.7819 84.8707 79.8756 82.622 83.7106C81.0842 86.3331 80.7993 89.889 79.2838 92.9296C77.4535 96.6019 75.2071 99.8079 73.4322 103.567C72.5437 105.449 73.7328 105.632 70.9973 105.694C66.9908 105.786 63.1172 107.418 59.137 107.861C55.3154 108.287 51.7155 108.531 47.8265 108.531C46.5305 108.531 45.2345 108.531 43.9385 108.531C42.9826 108.531 44.4038 108.311 44.2919 106.404C44.2099 105.005 40.8456 102.311 40.7574 104.434C40.677 106.369 43.0949 105.807 42.8388 107.861C42.5053 110.539 40.6401 112.961 40.0505 115.623C39.6091 117.615 39.1611 119.591 37.7727 121.138C33.3386 126.081 30.8384 133.047 28.1902 139.025C27.3632 140.891 28.7541 138.48 27.3262 137.764C26.0683 137.133 28.7573 140.297 30.1538 140.798C35.021 142.541 30.3194 132.31 28.0331 136.897" stroke="black" stroke-width="2" stroke-linecap="round"/>
</svg>
