<svg width="146" height="168" viewBox="0 0 146 168" fill="none" xmlns="http://www.w3.org/2000/svg">
<path id="Vector 56" d="M3.82052 23.0599C3.82052 23.9964 2.51956 28.4631 3.54346 28.6894C5.57955 29.1394 9.70199 29.0401 7.3036 25.9731C6.50506 24.952 2.47661 22.5857 1.12905 23.926C0.208651 24.8415 4.50693 23.0188 4.69129 22.9025C9.55684 19.8336 14.2969 17.1505 19.534 14.8716C23.6758 13.0693 28.3304 12.4458 32.3185 10.4625C35.2615 8.99894 39.8903 8.43174 42.3323 6.40772C44.7856 4.37434 48.5784 4.59505 51.0004 2.66786C51.4426 2.31604 54.8069 1.27979 55.473 1.13255C58.1679 0.536923 57.9666 2.01463 57.9666 4.24254C57.9666 11.9322 57.9666 19.6219 57.9666 27.3116C57.9666 36.4263 58.8492 45.8115 61.1726 54.5929C61.5954 56.1909 62.4474 61.0747 62.2413 59.435C62.01 57.5945 59.6876 57.2552 58.1249 57.9391C52.5261 60.3892 64.705 71.8501 65.0911 61.4821C65.1459 60.0091 63.518 58.372 61.9246 59.2775C60.5359 60.0669 61.5672 62.4779 63.2704 61.9939C64.8538 61.5439 63.2092 58.9875 62.2413 58.6477C60.7819 58.1354 64.061 61.2751 63.587 61.797C58.5826 67.3078 54.749 75.2225 49.061 79.7484C44.1963 83.6191 53.5548 81.1933 49.6547 78.7248C48.2076 77.8089 42.4454 78.8767 44.7467 81.1656C46.5778 82.9867 50.6422 81.4163 52.9795 82.0316C58.8999 83.5904 65.2024 86.8344 71.5031 86.8344C79.1395 86.8344 86.2493 89.7544 93.4307 91.9521C96.5702 92.9129 99.9193 94.6291 103.207 94.6291C105.71 94.6291 107.7 95.0932 109.105 92.1883C110.488 89.3258 110.966 85.4172 107.126 85.4172C104.557 85.4172 105.527 90.3397 107.126 91.3616C109.072 92.606 111.563 91.3936 113.221 90.3381C116.872 88.0138 120.023 84.071 123.908 82.2678C126.341 81.1385 128.756 81.1815 130.953 79.3941C134.566 76.454 138.682 72.6258 142.748 70.379C145.351 68.9408 142.19 69.1193 141.006 69.1193C138.529 69.1193 140.407 73.9049 141.679 74.7488C144.154 76.3896 143.494 71.8286 142.748 70.694C141.167 68.2886 140.319 70.9802 141.165 72.6623C141.683 73.6923 142.493 70.9338 140.056 69.9854C139.082 69.6062 144.342 70.8044 144.727 70.379C146.469 68.4534 139.35 53.951 138.117 51.0892C136.21 46.664 134.459 41.9563 132.061 37.7832C131 35.9368 130.068 25.9019 126.718 26.6423C123.792 27.289 124.937 31.8034 124.937 33.9646C124.937 36.9001 127.621 37.0544 130.201 36.4841C131.795 36.1318 130.272 32.0832 128.895 31.7207C126.455 31.0783 123.835 33.2906 126.52 35.1062C129.204 36.9216 130.884 35.1721 130.597 32.3112C130.426 30.6105 129.501 30.146 127.905 30.146C126.923 30.146 128.56 30.5432 128.697 30.8152C129.235 31.8849 126.27 30.758 125.095 31.0121C123.153 31.432 121.144 32.6388 119.237 33.2954C116.412 34.2678 114.687 36.4357 112.113 37.7832C108.377 39.7388 105.308 42.7419 101.426 44.6724C98.461 46.1469 93.0847 48.4346 91.2933 51.4042C87.0995 58.3563 93.584 35.1572 96.795 27.7052C98.3381 24.1241 100.508 18.4415 100.713 14.5567C100.994 9.2585 105.314 13.3852 107.838 14.7142C113.355 17.619 122.445 18.4572 125.808 24.4772C126.765 26.1914 128.499 26.5814 128.499 28.7682C128.499 31.2309 129.323 34.2178 130.32 36.4841C131.729 39.6891 133.825 42.2652 135.267 45.4204C137.786 50.9324 138.71 57.2385 141.323 62.7418C143.196 66.6857 144.173 71.5331 144.173 75.851C144.173 79.0922 144.173 82.3335 144.173 85.5747C144.173 92.4814 140.931 99.9015 139.186 106.518C137.747 111.974 135.963 117.752 134.951 123.288C134.497 125.77 133.41 125.099 130.795 125.099C128.816 125.099 128.187 128.451 129.845 129.351C134.134 131.678 133.907 125.789 133.407 123.052C133.105 121.399 128.399 118.365 127.153 120.533C126.284 122.046 128.835 124.402 130.241 123.603C131.33 122.984 127.226 117.607 126.718 116.596C125.231 113.637 124.619 110.357 122.799 107.541C121.716 105.866 119.742 104.691 119.079 102.975C118.454 101.36 114.436 95.538 112.508 96.0856C110.8 96.571 112.757 99.7066 114.408 99.5893C116.256 99.458 120.119 92.7438 118.05 91.9521C109.196 88.5653 114.685 97.4244 116.941 95.1802C118.406 93.7232 115.009 94.5828 114.21 95.377C110.648 98.9202 107.298 101.206 103.286 104.156C99.0532 107.268 96.895 109.405 94.3015 113.919C91.7805 118.307 92.0251 124.529 88.2456 128.288C85.8554 130.665 81.4774 132.857 81.4774 136.437C81.4774 139.278 82.9023 136.91 82.9023 135.177C82.9023 133.426 82.4896 133.404 83.0606 135.335C84.5837 140.485 87.4956 144.826 89.6705 149.585C91.1786 152.885 93.222 155.863 94.8556 159.112C95.5238 160.441 96.9892 161.825 97.8637 163.206C98.239 163.799 100.001 167.643 100.001 166.907" stroke="black" stroke-width="2" stroke-linecap="round"/>
</svg>
